REM DIRINDEX 1\2\3,1\2\4,1\2\5,1\2\6
REM DIRNAME folder01,folder02,folder03,folder04,folder05,folder06
TITLE ""
FILE "185 185.mp3" MP3
  TRACK 01 AUDIO
    TITLE "0:"
    INDEX 01 00:00:00
  TRACK 02 AUDIO
    TITLE "3:cjc157_6687"
    INDEX 01 00:00:11
  TRACK 03 AUDIO
    TITLE "0:"
    INDEX 01 00:01:62
  TRACK 04 AUDIO
    TITLE "4:cjc157_6688"
    INDEX 01 00:02:30
  TRACK 05 AUDIO
    TITLE "0:"
    INDEX 01 00:04:36
  TRACK 06 AUDIO
    TITLE "5:cjc157_6689"
    INDEX 01 00:05:09
  TRACK 07 AUDIO
    TITLE "0:"
    INDEX 01 00:11:52
  TRACK 08 AUDIO
    TITLE "3:cjc157_6690"
    INDEX 01 00:12:28
  TRACK 09 AUDIO
    TITLE "0:"
    INDEX 01 00:14:23
  TRACK 10 AUDIO
    TITLE "4:cjc157_6691"
    INDEX 01 00:14:68
  TRACK 11 AUDIO
    TITLE "0:"
    INDEX 01 00:17:04
  TRACK 12 AUDIO
    TITLE "5:cjc157_6692"
    INDEX 01 00:17:49
  TRACK 13 AUDIO
    TITLE "0:"
    INDEX 01 00:21:41
  TRACK 14 AUDIO
    TITLE "5:cjc157_6693"
    INDEX 01 00:22:09
  TRACK 15 AUDIO
    TITLE "0:"
    INDEX 01 00:25:07
  TRACK 16 AUDIO
    TITLE "3:cjc157_6694"
    INDEX 01 00:25:52
  TRACK 17 AUDIO
    TITLE "0:"
    INDEX 01 00:26:52
  TRACK 18 AUDIO
    TITLE "4:cjc157_6695"
    INDEX 01 00:27:26
  TRACK 19 AUDIO
    TITLE "0:"
    INDEX 01 00:29:19
  TRACK 20 AUDIO
    TITLE "5:cjc157_6696"
    INDEX 01 00:29:64
  TRACK 21 AUDIO
    TITLE "0:"
    INDEX 01 00:34:45
  TRACK 22 AUDIO
    TITLE "3:cjc157_6697"
    INDEX 01 00:35:17
  TRACK 23 AUDIO
    TITLE "0:"
    INDEX 01 00:37:42
  TRACK 24 AUDIO
    TITLE "4:cjc157_6698"
    INDEX 01 00:38:12
  TRACK 25 AUDIO
    TITLE "0:"
    INDEX 01 00:39:27
  TRACK 26 AUDIO
    TITLE "5:cjc157_6699"
    INDEX 01 00:39:70
  TRACK 27 AUDIO
    TITLE "0:"
    INDEX 01 00:43:27
  TRACK 28 AUDIO
    TITLE "3:cjc157_6700"
    INDEX 01 00:44:09
  TRACK 29 AUDIO
    TITLE "0:"
    INDEX 01 00:45:55
  TRACK 30 AUDIO
    TITLE "4:cjc157_6701"
    INDEX 01 00:46:27
  TRACK 31 AUDIO
    TITLE "0:"
    INDEX 01 00:47:50
  TRACK 32 AUDIO
    TITLE "5:cjc157_6702"
    INDEX 01 00:48:24
  TRACK 33 AUDIO
    TITLE "0:"
    INDEX 01 00:52:20
  TRACK 34 AUDIO
    TITLE "3:cjc157_6703"
    INDEX 01 00:52:65
  TRACK 35 AUDIO
    TITLE "0:"
    INDEX 01 00:53:60
  TRACK 36 AUDIO
    TITLE "4:cjc157_6704"
    INDEX 01 00:54:32
  TRACK 37 AUDIO
    TITLE "0:"
    INDEX 01 00:55:57
  TRACK 38 AUDIO
    TITLE "5:cjc157_6705"
    INDEX 01 00:56:27
  TRACK 39 AUDIO
    TITLE "0:"
    INDEX 01 01:01:36
  TRACK 40 AUDIO
    TITLE "3:cjc157_6706"
    INDEX 01 01:02:12
  TRACK 41 AUDIO
    TITLE "0:"
    INDEX 01 01:04:05
  TRACK 42 AUDIO
    TITLE "4:cjc157_6707"
    INDEX 01 01:04:48
  TRACK 43 AUDIO
    TITLE "0:"
    INDEX 01 01:05:68
  TRACK 44 AUDIO
    TITLE "5:cjc157_6708"
    INDEX 01 01:06:42
  TRACK 45 AUDIO
    TITLE "0:"
    INDEX 01 01:09:63
  TRACK 46 AUDIO
    TITLE "3:cjc157_6709"
    INDEX 01 01:10:37
  TRACK 47 AUDIO
    TITLE "0:"
    INDEX 01 01:12:11
  TRACK 48 AUDIO
    TITLE "4:cjc157_6710"
    INDEX 01 01:12:62
  TRACK 49 AUDIO
    TITLE "0:"
    INDEX 01 01:14:29
  TRACK 50 AUDIO
    TITLE "5:cjc157_6711"
    INDEX 01 01:15:01
  TRACK 51 AUDIO
    TITLE "0:"
    INDEX 01 01:19:23
  TRACK 52 AUDIO
    TITLE "3:cjc157_6712"
    INDEX 01 01:19:68
  TRACK 53 AUDIO
    TITLE "0:"
    INDEX 01 01:21:39
  TRACK 54 AUDIO
    TITLE "4:cjc157_6713"
    INDEX 01 01:22:07
  TRACK 55 AUDIO
    TITLE "0:"
    INDEX 01 01:23:56
  TRACK 56 AUDIO
    TITLE "5:cjc157_6714"
    INDEX 01 01:24:28
  TRACK 57 AUDIO
    TITLE "0:"
    INDEX 01 01:27:55
  TRACK 58 AUDIO
    TITLE "5:cjc157_6715"
    INDEX 01 01:28:25
  TRACK 59 AUDIO
    TITLE "0:"
    INDEX 01 01:32:39
  TRACK 60 AUDIO
    TITLE "3:cjc157_6716"
    INDEX 01 01:33:09
  TRACK 61 AUDIO
    TITLE "0:"
    INDEX 01 01:35:24
  TRACK 62 AUDIO
    TITLE "4:cjc157_6717"
    INDEX 01 01:35:65
  TRACK 63 AUDIO
    TITLE "0:"
    INDEX 01 01:38:00
  TRACK 64 AUDIO
    TITLE "5:cjc157_6718"
    INDEX 01 01:38:47
  TRACK 65 AUDIO
    TITLE "0:"
    INDEX 01 01:41:65
  TRACK 66 AUDIO
    TITLE "5:cjc157_6719"
    INDEX 01 01:42:35
  TRACK 67 AUDIO
    TITLE "0:"
    INDEX 01 01:44:44
